<svg xmlns="http://www.w3.org/2000/svg" height="24" viewBox="0 -960 960 960" width="24" fill="#707173"><path d="M251.495-261.115q51.543-36.193 106.986-56.924 55.442-20.73 121.519-20.73t121.519 20.73q55.443 20.731 107.443 56.924 40.346-41.731 64.153-97.165 23.808-55.434 23.808-121.659 0-131.946-92.519-224.465T480-796.923q-131.885 0-224.404 92.519t-92.519 224.465q0 66.225 23.808 121.659 23.807 55.434 64.61 97.165Zm228.639-200.116q-50.442 0-84.673-34.097-34.23-34.097-34.23-84.538 0-50.442 34.097-84.673 34.097-34.23 84.538-34.23 50.442 0 84.673 34.097 34.23 34.097 34.23 84.538 0 50.442-34.097 84.673-34.097 34.23-84.538 34.23ZM480-126.154q-73.599 0-138.411-27.686-64.813-27.686-112.451-75.423Q181.5-277 153.827-341.741q-27.673-64.741-27.673-138.451 0-73.792 27.686-138.412t75.423-112.258Q277-778.5 341.741-806.173q64.741-27.673 138.451-27.673 73.792 0 138.412 27.686t112.258 75.423Q778.5-683 806.173-618.485 833.846-553.969 833.846-480q0 73.599-27.686 138.411-27.686 64.813-75.423 112.451Q683-181.5 618.485-153.827 553.969-126.154 480-126.154Zm-.023-36.923q54.715 0 107.388-19.038 52.673-19.039 92.789-52.654-40.116-30.808-90.458-48.942-50.342-18.135-109.613-18.135T369.56-284.538q-51.252 17.307-89.714 49.769 40.116 33.615 92.766 52.654 52.65 19.038 107.365 19.038ZM480-498.154q34.192 0 58.019-23.827 23.827-23.827 23.827-58.019 0-34.192-23.827-58.019-23.827-23.827-58.019-23.827-34.192 0-58.019 23.827-23.827 23.827-23.827 58.019 0 34.192 23.827 58.019 23.827 23.827 58.019 23.827ZM480-580Zm0 347.539Z"/></svg>