<?xml version="1.0" encoding="iso-8859-1"?>
<!-- Generator: Adobe Illustrator 15.0.0, SVG Export Plug-In . SVG Version: 6.00 Build 0)  -->
<!DOCTYPE svg PUBLIC "-//W3C//DTD SVG 1.1//EN" "http://www.w3.org/Graphics/SVG/1.1/DTD/svg11.dtd">
<svg version="1.1" id="&#x30EC;&#x30A4;&#x30E4;&#x30FC;_1"
	 xmlns="http://www.w3.org/2000/svg" xmlns:xlink="http://www.w3.org/1999/xlink" x="0px" y="0px" width="141.732px"
	 height="141.732px" viewBox="0 0 141.732 141.732" style="enable-background:new 0 0 141.732 141.732;" xml:space="preserve">
<g>
	<ellipse style="fill-rule:evenodd;clip-rule:evenodd;fill:#82B865;" cx="70.866" cy="104.858" rx="55.692" ry="22.604"/>
	<ellipse style="fill-rule:evenodd;clip-rule:evenodd;fill:#339933;" cx="70.866" cy="103.258" rx="43.681" ry="17.729"/>
	<ellipse style="fill-rule:evenodd;clip-rule:evenodd;fill:#598B3F;" cx="70.866" cy="103.258" rx="43.681" ry="17.729"/>
	<path style="fill-rule:evenodd;clip-rule:evenodd;fill:#639946;" d="M27.186,103.258c0,0.869,0.153,1.724,0.451,2.56L77.95,85.762
		c-2.305-0.152-4.672-0.233-7.084-0.233c-2.787,0-5.51,0.105-8.153,0.309L28.097,99.635C27.5,100.806,27.186,102.018,27.186,103.258
		z M30.97,110.486c1.487,1.351,3.379,2.612,5.612,3.761l61.967-24.703c-2.784-0.928-5.858-1.718-9.16-2.346L30.97,110.486z
		 M44.068,117.259c2.862,0.906,6.006,1.667,9.373,2.262l57.802-23.04c-1.407-1.378-3.228-2.667-5.403-3.844L44.068,117.259z
		 M65.182,120.837c1.86,0.1,3.758,0.15,5.685,0.15c3.517,0,6.936-0.169,10.211-0.488l32.078-12.787
		c0.909-1.423,1.392-2.915,1.392-4.454c0-0.673-0.091-1.335-0.273-1.988L65.182,120.837z"/>
	<circle style="fill-rule:evenodd;clip-rule:evenodd;fill:#E8E8E8;" cx="86.813" cy="105.394" r="3.733"/>
	<path style="fill-rule:evenodd;clip-rule:evenodd;fill:#DFDFDF;" d="M84.085,107.945c0.246,0.263,0.527,0.485,0.833,0.665
		c0.11-0.142,0.145-0.338,0.075-0.518c-0.104-0.273-0.413-0.412-0.688-0.306C84.216,107.822,84.141,107.876,84.085,107.945z
		 M87.694,109.021c0.153-0.038,0.309-0.084,0.459-0.143s0.297-0.126,0.437-0.201c0.006-0.077-0.005-0.16-0.035-0.238
		c-0.104-0.275-0.415-0.412-0.688-0.308c-0.276,0.106-0.412,0.415-0.306,0.691C87.59,108.899,87.636,108.967,87.694,109.021z
		 M90.375,106.512c0.106-0.338,0.166-0.691,0.171-1.054c-0.088-0.01-0.18-0.002-0.268,0.032c-0.276,0.104-0.412,0.413-0.306,0.688
		C90.04,106.359,90.197,106.479,90.375,106.512z M89.822,103.183c-0.192-0.26-0.415-0.492-0.659-0.691l-0.035,0.011
		c-0.272,0.107-0.41,0.416-0.305,0.691c0.104,0.273,0.415,0.41,0.688,0.306C89.662,103.44,89.771,103.322,89.822,103.183z
		 M83.125,104.815c-0.051,0.311-0.059,0.633-0.027,0.953c0.132,0.07,0.293,0.087,0.442,0.027c0.273-0.104,0.41-0.415,0.306-0.688
		c-0.106-0.276-0.415-0.413-0.688-0.306L83.125,104.815z M85.261,102.848c0.107,0.276,0.416,0.413,0.691,0.306
		c0.273-0.104,0.41-0.412,0.306-0.688c-0.106-0.273-0.415-0.413-0.688-0.306C85.293,102.264,85.156,102.572,85.261,102.848z
		 M85.837,104.341c0.105,0.275,0.413,0.412,0.689,0.306c0.273-0.104,0.412-0.413,0.305-0.688c-0.104-0.273-0.412-0.41-0.688-0.307
		C85.866,103.757,85.729,104.067,85.837,104.341z M86.411,105.833c0.104,0.276,0.415,0.413,0.688,0.309
		c0.276-0.106,0.413-0.415,0.306-0.691c-0.104-0.273-0.413-0.41-0.689-0.306C86.443,105.252,86.307,105.56,86.411,105.833z
		 M86.984,107.326c0.107,0.276,0.415,0.413,0.688,0.309c0.276-0.107,0.413-0.416,0.309-0.688c-0.107-0.276-0.416-0.413-0.688-0.309
		C87.017,106.745,86.88,107.053,86.984,107.326z M83.962,103.92c0.104,0.276,0.412,0.413,0.688,0.306
		c0.273-0.104,0.413-0.413,0.307-0.689c-0.105-0.273-0.413-0.412-0.689-0.305C83.991,103.335,83.854,103.644,83.962,103.92z
		 M84.534,105.413c0.105,0.276,0.416,0.412,0.689,0.306c0.275-0.104,0.412-0.413,0.306-0.689c-0.104-0.273-0.413-0.41-0.688-0.306
		C84.567,104.829,84.431,105.14,84.534,105.413z M83.403,106.914c0.032,0.069,0.064,0.139,0.1,0.208
		c0.143,0.178,0.386,0.252,0.611,0.167c0.273-0.104,0.412-0.413,0.305-0.688c-0.104-0.276-0.412-0.413-0.688-0.307
		C83.479,106.392,83.343,106.656,83.403,106.914z M90.429,104.458c-0.021-0.072-0.043-0.146-0.067-0.222
		c-0.126-0.23-0.405-0.338-0.657-0.239c-0.275,0.105-0.412,0.413-0.308,0.689c0.107,0.273,0.415,0.41,0.688,0.306
		C90.311,104.906,90.442,104.687,90.429,104.458z M85.108,106.906c0.107,0.275,0.416,0.412,0.688,0.308
		c0.276-0.107,0.413-0.416,0.309-0.691c-0.107-0.273-0.416-0.41-0.688-0.306C85.141,106.324,85.004,106.632,85.108,106.906z
		 M85.685,108.398c0.104,0.276,0.413,0.413,0.688,0.308c0.273-0.106,0.41-0.415,0.306-0.688c-0.104-0.276-0.415-0.412-0.688-0.308
		C85.714,107.817,85.577,108.125,85.685,108.398z M86.946,102.771c0.105,0.276,0.416,0.412,0.689,0.308
		c0.275-0.107,0.412-0.415,0.306-0.688c-0.104-0.276-0.413-0.413-0.689-0.309C86.979,102.188,86.843,102.497,86.946,102.771z
		 M87.521,104.266c0.107,0.273,0.415,0.41,0.688,0.306c0.276-0.107,0.413-0.415,0.309-0.689c-0.107-0.275-0.416-0.412-0.688-0.308
		C87.553,103.682,87.416,103.989,87.521,104.266z M88.097,105.759c0.104,0.273,0.412,0.41,0.688,0.306
		c0.273-0.104,0.41-0.416,0.306-0.689c-0.104-0.276-0.415-0.413-0.688-0.306C88.126,105.175,87.989,105.482,88.097,105.759z
		 M88.67,107.252c0.104,0.272,0.413,0.412,0.688,0.305c0.277-0.104,0.413-0.413,0.306-0.688c-0.104-0.276-0.412-0.413-0.688-0.306
		C88.702,106.667,88.563,106.976,88.67,107.252z"/>
	<polygon style="fill-rule:evenodd;clip-rule:evenodd;fill:#C93327;" points="59.208,38.182 87.617,27.135 59.208,16.087 	"/>
	<ellipse style="fill-rule:evenodd;clip-rule:evenodd;fill:#4E7836;" cx="57.6" cy="97.89" rx="6.968" ry="2.948"/>
	<path style="fill-rule:evenodd;clip-rule:evenodd;fill:#E8E8E8;" d="M57.6,14.271c-0.887,0-1.608,0.6-1.608,1.34v84.959
		c0,0.076,0.008,0.148,0.021,0.218c0.515,0.035,1.045,0.051,1.586,0.051c0.542,0,1.072-0.016,1.587-0.051
		c0.013-0.069,0.021-0.142,0.021-0.218V15.61C59.208,14.871,58.487,14.271,57.6,14.271z"/>
	<path style="fill-rule:evenodd;clip-rule:evenodd;fill:#D8483D;" d="M55.992,71.491v15.143c0,0.739,0.721,1.34,1.608,1.34
		c0.887,0,1.608-0.601,1.608-1.34V71.491c-0.408,0.248-0.979,0.401-1.608,0.401S56.399,71.739,55.992,71.491z"/>
	<path style="fill-rule:evenodd;clip-rule:evenodd;fill:#D8483D;" d="M55.992,38.257V53.4c0,0.74,0.721,1.34,1.608,1.34
		c0.887,0,1.608-0.6,1.608-1.34V38.257c-0.408,0.249-0.979,0.402-1.608,0.402S56.399,38.506,55.992,38.257z"/>
</g>
</svg>
